<svg xmlns="http://www.w3.org/2000/svg" xmlns:xlink="http://www.w3.org/1999/xlink" width="500" zoomAndPan="magnify" viewBox="0 0 375 374.999991" height="500" preserveAspectRatio="xMidYMid meet" version="1.0"><defs><g/><clipPath id="82013e1431"><path d="M 187.5 0 C 83.945312 0 0 83.945312 0 187.5 C 0 291.054688 83.945312 375 187.5 375 C 291.054688 375 375 291.054688 375 187.5 C 375 83.945312 291.054688 0 187.5 0 Z M 187.5 0 " clip-rule="nonzero"/></clipPath></defs><g clip-path="url(#82013e1431)"><rect x="-37.5" width="450" fill="#000000" y="-37.499999" height="449.999989" fill-opacity="1"/></g><g fill="#ffffff" fill-opacity="1"><g transform="translate(85.676315, 250.299804)"><g><path d="M 4.796875 0 L 43.53125 0 L 43.53125 -142.140625 L 4.796875 -142.140625 Z M 4.796875 0 "/></g></g></g><g fill="#ffffff" fill-opacity="1"><g transform="translate(134.180358, 250.299804)"><g><path d="M 4.796875 0 L 43.53125 0 L 43.53125 -57.921875 C 52.238281 -66.804688 68.40625 -73.914062 83.507812 -73.914062 C 104.472656 -73.914062 111.402344 -64.851562 111.402344 -45.484375 L 111.402344 0 L 150.136719 0 L 150.316406 -60.941406 C 150.136719 -99.5 123.308594 -107.671875 98.078125 -107.671875 C 74.800781 -107.671875 57.035156 -100.210938 43.53125 -90.4375 L 43.53125 -105.894531 L 4.796875 -105.894531 Z M 4.796875 0 "/></g></g></g></svg>