<svg xmlns="http://www.w3.org/2000/svg" xmlns:xlink="http://www.w3.org/1999/xlink" width="500" zoomAndPan="magnify" viewBox="0 0 375 374.999991" height="500" preserveAspectRatio="xMidYMid meet" version="1.0"><defs><g/></defs><g fill="#000000" fill-opacity="1"><g transform="translate(25.567468, 315.380014)"><g><path d="M 168.625 -70.402344 C 142.867188 -44.304688 110.929688 -43.617188 80.019531 -42.929688 C 75.554688 -42.929688 71.089844 -42.585938 66.625 -42.585938 C 91.351562 -105.777344 113.675781 -211.210938 121.574219 -248.644531 C 121.917969 -250.363281 120.886719 -252.421875 118.484375 -254.484375 C 114.707031 -257.574219 104.746094 -263.070312 99.9375 -261.351562 C 98.566406 -261.007812 97.535156 -259.636719 97.191406 -258.261719 C 78.988281 -159.007812 55.980469 -78.988281 40.179688 -39.496094 C 24.382812 -35.71875 10.988281 -28.160156 2.0625 -10.988281 C 0.34375 -7.898438 -0.34375 -4.464844 0 -1.375 L 0 -0.34375 C 0 -0.34375 0 0 0.34375 0.34375 C 1.03125 4.808594 3.433594 8.585938 7.554688 10.988281 C 10.304688 13.050781 14.082031 14.082031 18.203125 14.082031 C 26.445312 14.082031 36.402344 9.617188 45.675781 -2.0625 C 51.859375 -9.617188 58.382812 -21.980469 64.566406 -37.433594 C 69.375 -37.433594 74.867188 -37.777344 80.019531 -37.777344 C 110.585938 -38.464844 144.929688 -39.152344 172.058594 -66.96875 C 173.089844 -68 173.089844 -69.714844 172.058594 -70.402344 C 171.03125 -71.433594 169.3125 -71.433594 168.625 -70.402344 Z M 29.191406 -16.484375 C 19.230469 -2.0625 10.644531 2.402344 7.554688 1.71875 C 6.867188 1.71875 5.839844 1.375 5.152344 -0.6875 C 4.808594 -3.433594 5.152344 -6.183594 6.523438 -8.585938 C 14.082031 -23.011719 24.726562 -29.878906 37.777344 -33.65625 C 34.6875 -25.757812 31.597656 -20.261719 29.191406 -16.484375 Z M 29.191406 -16.484375 "/></g></g></g><g fill="#000000" fill-opacity="1"><g transform="translate(192.475298, 315.380014)"><g><path d="M 161.414062 -71.089844 C 160.039062 -71.777344 158.664062 -71.089844 157.980469 -70.058594 C 122.949219 -7.898438 106.808594 1.71875 99.59375 -1.03125 C 87.917969 -5.496094 95.816406 -34.6875 103.375 -63.191406 C 105.777344 -71.433594 108.179688 -80.363281 109.898438 -88.949219 L 114.019531 -105.433594 C 125.351562 -152.140625 144.585938 -230.441406 117.453125 -243.835938 C 110.242188 -247.613281 102 -247.269531 93.757812 -243.492188 L 93.757812 -243.148438 L 93.070312 -243.148438 C 76.929688 -234.90625 62.503906 -213.273438 53.230469 -190.261719 C 54.949219 -207.433594 57.011719 -225.980469 58.726562 -245.898438 C 59.414062 -251.734375 56.324219 -256.886719 51.515625 -259.976562 L 44.988281 -263.757812 C 43.617188 -264.441406 42.585938 -264.785156 41.210938 -264.785156 C 39.839844 -264.785156 38.808594 -264.441406 37.777344 -263.757812 C 35.375 -262.726562 34.34375 -260.664062 34 -258.261719 C 32.625 -203.65625 18.546875 -75.898438 0.34375 -30.566406 C -0.34375 -28.503906 0 -26.445312 1.71875 -24.726562 C 2.746094 -23.695312 4.464844 -23.011719 5.839844 -23.011719 C 6.523438 -23.011719 7.554688 -23.011719 8.242188 -23.351562 C 13.394531 -25.757812 17.859375 -28.160156 20.949219 -31.253906 C 23.695312 -33.3125 25.414062 -36.402344 26.445312 -39.839844 C 28.847656 -48.765625 39.496094 -87.917969 49.109375 -159.351562 C 54.949219 -189.574219 73.496094 -227.695312 95.472656 -238.683594 L 95.816406 -238.683594 C 98.222656 -239.714844 99.9375 -240.058594 101.65625 -239.371094 C 104.402344 -238.34375 106.808594 -234.90625 109.210938 -229.414062 C 112.988281 -219.453125 109.210938 -179.273438 92.039062 -112.644531 L 91.007812 -109.554688 C 74.179688 -43.960938 69.03125 -24.382812 75.554688 -7.210938 C 77.273438 -2.402344 81.050781 1.03125 86.546875 2.746094 C 89.980469 4.121094 94.101562 4.808594 97.878906 4.808594 C 102.6875 4.808594 106.808594 4.121094 108.523438 2.746094 L 109.210938 2.746094 C 125.695312 -5.496094 145.617188 -37.777344 162.445312 -67.65625 C 163.128906 -68.6875 162.445312 -70.402344 161.414062 -71.089844 Z M 161.414062 -71.089844 "/></g></g></g></svg>