<svg width="157" height="52" viewBox="0 0 157 52" fill="none" xmlns="http://www.w3.org/2000/svg">
<g clip-path="url(#clip0_2_1132)">
<path d="M34.234 50.2365L28.8037 40.1892L33.8678 32.7894L35.6451 45.2958L34.234 50.2365Z" fill="#FFAB02"/>
<path d="M51.891 32.7894L47.9165 49.4915L43.1382 32.7894H41.017L36.2388 49.4646L35.5645 51.8115H37.3418L42.0933 35.5178L46.818 51.8115H49.0731L53.9586 32.7894H51.891Z" fill="#FFAB02"/>
<path d="M56.8703 31.7663C57.1489 31.5257 57.5081 31.4006 57.8751 31.4163C58.2397 31.3982 58.597 31.5238 58.8709 31.7663C58.9974 31.8878 59.0964 32.0353 59.1611 32.1987C59.2259 32.3621 59.2548 32.5375 59.2461 32.7131C59.2501 32.8809 59.2187 33.0475 59.1541 33.2022C59.0894 33.3569 58.9929 33.4961 58.8709 33.6106C58.597 33.8531 58.2397 33.9787 57.8751 33.9606C57.5081 33.9764 57.1489 33.8512 56.8703 33.6106C56.745 33.498 56.6454 33.3595 56.5783 33.2046C56.5112 33.0497 56.4783 32.882 56.4818 32.7131C56.4735 32.5364 56.504 32.3599 56.5712 32.1963C56.6383 32.0326 56.7404 31.8859 56.8703 31.7663ZM58.8174 37.0614V51.7936H56.9016V37.0614H58.8174Z" fill="#FFAB02"/>
<path d="M74.3757 38.4436C75.4386 39.5355 75.97 41.1315 75.97 43.2316V51.8115H74.1212V43.3662C74.1212 41.7687 73.7148 40.5392 72.911 39.6866C72.4823 39.2506 71.9666 38.9108 71.3977 38.6896C70.8289 38.4684 70.2199 38.3708 69.6108 38.4032C68.9594 38.3719 68.3089 38.4824 67.7038 38.7272C67.0988 38.9719 66.5535 39.3451 66.1053 39.8212C65.2389 40.7635 64.8043 42.1516 64.8013 43.9855V51.8115H62.8989V37.0614H64.8013V40.6514C65.1236 39.498 65.8398 38.4955 66.8243 37.8198C67.8247 37.1473 69.0058 36.7981 70.2092 36.8191C70.9777 36.7863 71.7446 36.9137 72.4616 37.1933C73.1787 37.4729 73.8304 37.8985 74.3757 38.4436Z" fill="#FFAB02"/>
<path d="M89.6662 49.4377C90.1006 49.1206 90.4668 48.7187 90.7431 48.2561C91.0193 47.7935 91.1998 47.2796 91.2738 46.7453H93.2611C93.0275 48.2524 92.2285 49.6124 91.0282 50.5461C89.7038 51.5552 88.0716 52.0707 86.4107 52.0045C85.1148 52.0293 83.8342 51.7204 82.6908 51.107C81.6102 50.5013 80.7287 49.5922 80.1543 48.4909C79.5532 47.2302 79.2412 45.8501 79.2412 44.4522C79.2412 43.0543 79.5532 41.6742 80.1543 40.4135C80.7261 39.3104 81.6082 38.4006 82.6908 37.7974C83.8342 37.184 85.1148 36.8751 86.4107 36.8999C87.7076 36.8652 88.9908 37.1747 90.1306 37.7974C91.1384 38.3587 91.9668 39.1959 92.5198 40.2116C93.0651 41.2207 93.3463 42.3526 93.337 43.5009C93.3405 43.9623 93.3046 44.4232 93.2298 44.8785H81.101C81.0802 45.9658 81.3435 47.0396 81.8646 47.9927C82.3096 48.7856 82.9776 49.4287 83.7849 49.8416C84.5768 50.2375 85.4503 50.4404 86.3348 50.4339C87.5236 50.4756 88.6935 50.1257 89.6662 49.4377ZM83.8117 39.0224C83.0116 39.4329 82.3452 40.0652 81.8914 40.8443C81.3691 41.7803 81.0968 42.8362 81.101 43.9092H91.4614C91.5635 42.8562 91.3587 41.796 90.8719 40.8578C90.445 40.0686 89.7893 39.4285 88.9919 39.0224C88.1913 38.624 87.3085 38.421 86.4152 38.4301C85.5131 38.4195 84.6212 38.6224 83.8117 39.0224Z" fill="#FFAB02"/>
<path d="M107.547 51.8115L103.278 45.3093L99.4911 51.8115H95.1684L101.112 42.0739L94.9897 32.767H99.4554L103.644 39.1301L107.378 32.767H111.7L105.801 42.3431L112.031 51.8115H107.547Z" fill="#1B1F3C"/>
<path d="M123.119 37.5685C123.996 38.1408 124.665 38.9831 125.026 39.9693V36.864H128.799V51.8115H125.043V48.6703C124.678 49.6576 124.011 50.5029 123.137 51.0846C122.176 51.7027 121.053 52.0155 119.912 51.982C118.724 52.0045 117.554 51.6937 116.532 51.0846C115.507 50.4493 114.69 49.5256 114.183 48.428C113.623 47.1385 113.334 45.7468 113.334 44.34C113.334 42.9332 113.623 41.5415 114.183 40.252C114.689 39.1536 115.506 38.2295 116.532 37.5954C117.551 36.9767 118.722 36.6579 119.912 36.6755C121.046 36.6463 122.162 36.9572 123.119 37.5685ZM118.229 41.1584C117.474 42.0407 117.09 43.183 117.157 44.3445C117.09 45.5005 117.474 46.6373 118.229 47.5126C118.992 48.2545 120.013 48.6671 121.074 48.6621C122.136 48.657 123.153 48.2348 123.909 47.4857C124.68 46.6281 125.081 45.4987 125.026 44.3445C125.084 43.1804 124.683 42.0401 123.909 41.1719C123.151 40.4253 122.131 40.0072 121.069 40.0072C120.007 40.0072 118.988 40.4253 118.229 41.1719V41.1584Z" fill="#1B1F3C"/>
<path d="M155.428 38.3359C156.479 39.4637 157.003 41.0597 157 43.1239V51.8115H153.24V43.5547C153.297 42.5862 152.977 41.6334 152.347 40.8982C152.034 40.5822 151.658 40.3362 151.244 40.1761C150.83 40.016 150.387 39.9456 149.944 39.9693C149.477 39.9466 149.011 40.0237 148.576 40.1954C148.141 40.3672 147.748 40.6296 147.421 40.9655C146.791 41.6296 146.479 42.6034 146.479 43.8778V51.8115H142.719V43.5547C142.776 42.5862 142.456 41.6334 141.826 40.8982C141.514 40.5808 141.138 40.3338 140.724 40.1737C140.31 40.0135 139.866 39.9438 139.423 39.9693C138.956 39.9466 138.49 40.0237 138.055 40.1954C137.62 40.3672 137.227 40.6296 136.9 40.9655C136.27 41.6296 135.958 42.6034 135.958 43.8778V51.8115H132.175V36.864H135.958V39.7C136.323 38.7697 136.978 37.9827 137.824 37.4563C138.718 36.9112 139.749 36.6341 140.794 36.6576C141.898 36.6304 142.986 36.9317 143.92 37.5236C144.827 38.1227 145.526 38.9898 145.921 40.0052C146.367 39.0016 147.094 38.1505 148.014 37.5559C148.935 36.9614 150.007 36.6492 151.101 36.6576C152.938 36.6516 154.38 37.211 155.428 38.3359Z" fill="#1B1F3C"/>
<path d="M47.872 19.5606C40.2834 13.1526 32.7066 6.72063 25.1417 0.264754C24.6951 -0.112187 24.454 -0.112187 24.003 0.264754C16.197 6.79243 8.37903 13.3081 0.549204 19.8119C-0.196565 20.4356 -0.196562 20.4356 0.625123 20.9606C1.44681 21.4857 2.3846 22.1049 3.30453 22.6434C3.48567 22.7351 3.63722 22.8765 3.74156 23.0512C3.84591 23.226 3.89877 23.4269 3.894 23.6307C4.09049 27.7411 4.42988 31.8426 4.38076 35.9575C4.38768 36.0727 4.40562 36.1869 4.43435 36.2986C4.61096 36.2142 4.75893 36.0793 4.85979 35.911C4.96064 35.7426 5.00993 35.5481 5.00149 35.3517C5.36768 32.043 5.73089 28.7358 6.09112 25.4301C6.18043 24.6089 6.22062 24.5775 6.94853 24.9814C9.48057 26.3724 9.47164 26.3725 9.44484 29.2668C9.41805 32.1612 9.3466 35.1633 10.2263 38.0038C11.566 42.3027 14.049 45.6638 18.3583 47.3152C20.5227 48.2001 22.8822 48.4912 25.1953 48.1588C27.5443 47.7774 28.5714 47.2613 29.1296 46.7856C29.4061 46.5505 29.6562 46.2857 29.8753 45.9959L29.5404 45.3093C24.713 46.9023 19.6489 45.9914 16.3622 42.8412C14.5716 41.0476 13.3875 38.7337 12.9772 36.2268C12.0573 31.4387 14.3169 26.4667 18.528 23.7069C23.9404 20.1709 29.795 21.1222 33.8498 25.0891C34.8138 26.0203 35.5901 27.1294 36.1362 28.3559C36.3416 28.8046 36.489 28.9482 36.9534 28.5982C40.5647 25.8519 44.1893 23.1206 47.8274 20.4042C48.2605 20.0901 48.3052 19.9285 47.872 19.5606Z" fill="#1B1F3C"/>
<path d="M4.62653 36.671C4.75791 37.2177 4.77916 37.7853 4.68905 38.3404C4.30053 37.9634 4.36305 37.5147 4.32286 37.0973C4.32286 36.9851 4.32286 36.8416 4.19336 36.7877C4.06385 36.7339 3.97454 36.8505 3.88969 36.9313C3.4484 37.3258 3.17366 37.8748 3.12159 38.466C3.01442 40.05 3.51904 41.5309 3.8495 43.0835C4.35412 41.9033 5.3455 41.0732 5.8144 39.9424C6.37708 38.6006 5.79654 37.0884 4.62653 36.671Z" fill="#1B1F3C"/>
<path d="M24.6776 43.1643C22.8732 43.1643 21.1092 42.6266 19.6089 41.6193C18.1086 40.6119 16.9392 39.1801 16.2487 37.5049C15.5582 35.8297 15.3775 33.9864 15.7295 32.208C16.0815 30.4296 16.9505 28.7961 18.2264 27.514C19.5023 26.2318 21.1279 25.3587 22.8977 25.005C24.6675 24.6512 26.5019 24.8328 28.169 25.5266C29.836 26.2205 31.2609 27.3956 32.2634 28.9032C33.2659 30.4108 33.801 32.1833 33.801 33.9966C33.7974 36.4269 32.8351 38.7567 31.1249 40.4752C29.4147 42.1937 27.0962 43.1608 24.6776 43.1643Z" fill="#FFAB02"/>
<path d="M24.6775 25.5019C26.3495 25.5019 27.9839 26.0001 29.3741 26.9335C30.7642 27.8669 31.8477 29.1936 32.4876 30.7458C33.1274 32.298 33.2948 34.006 32.9686 35.6538C32.6424 37.3016 31.8373 38.8152 30.6551 40.0032C29.4728 41.1912 27.9666 42.0002 26.3267 42.328C24.6869 42.6557 22.9872 42.4875 21.4425 41.8446C19.8978 41.2016 18.5776 40.1129 17.6487 38.7159C16.7198 37.319 16.224 35.6766 16.224 33.9966C16.2264 31.7444 17.1178 29.5851 18.7026 27.9925C20.2874 26.4 22.4362 25.5043 24.6775 25.5019ZM24.6775 24.1557C22.7406 24.1557 20.8472 24.7328 19.2367 25.8142C17.6262 26.8955 16.371 28.4324 15.6297 30.2306C14.8885 32.0288 14.6946 34.0075 15.0725 35.9164C15.4503 37.8253 16.383 39.5788 17.7527 40.9551C19.1223 42.3314 20.8673 43.2686 22.767 43.6483C24.6667 44.028 26.6358 43.8331 28.4252 43.0883C30.2147 42.3435 31.7442 41.0822 32.8203 39.4638C33.8964 37.8455 34.4708 35.9429 34.4708 33.9966C34.4708 31.3866 33.439 28.8835 31.6024 27.038C29.7658 25.1925 27.2749 24.1557 24.6775 24.1557Z" fill="white"/>
<path d="M24.7844 35.7152C24.5254 35.7601 24.2619 35.796 24.0074 35.8588C23.7528 35.9216 23.6457 35.8319 23.6144 35.5761C23.5557 35.2277 23.5258 34.875 23.5251 34.5216C23.5563 33.7811 24.0431 33.31 24.4941 32.8208C24.6817 32.6144 24.8782 32.4215 25.0702 32.224C25.1757 32.1156 25.2591 31.9876 25.3158 31.8471C25.4004 31.7047 25.442 31.5407 25.4356 31.3751C25.4293 31.2094 25.3753 31.0491 25.2801 30.9137C25.1698 30.7909 25.0288 30.7 24.8718 30.6503C24.7148 30.6006 24.5474 30.5939 24.387 30.631C23.5505 30.7721 22.767 31.1363 22.1184 31.6855C21.8147 31.9323 21.6495 31.883 21.4485 31.5778C21.1756 31.1647 20.8773 30.769 20.5554 30.3932C20.3366 30.1419 20.4259 30.0117 20.6358 29.8547C21.1876 29.4142 21.7998 29.0561 22.4533 28.7912C23.4385 28.3656 24.5088 28.1766 25.5793 28.2392C26.6287 28.3469 27.5129 28.7597 27.9149 29.8143C28.1404 30.319 28.2182 30.8779 28.1391 31.4255C28.06 31.973 27.8273 32.4866 27.4683 32.9061C27.0798 33.3548 26.6198 33.7677 26.2179 34.2164C26.0831 34.3415 25.9821 34.499 25.9243 34.674C25.8665 34.849 25.8538 35.0358 25.8874 35.2171C25.9366 35.4415 25.8472 35.5402 25.6284 35.5716C25.4096 35.603 25.0568 35.6703 24.7755 35.7242L24.7844 35.7152Z" fill="#FEFEFE"/>
<path d="M26.9505 38.0891C27.1113 38.9865 26.6424 39.5968 25.6957 39.7673C24.6507 39.9603 24.0077 39.5654 23.838 38.6365C23.6683 37.7076 24.1014 37.1063 25.1777 36.9134C26.2539 36.7204 26.7808 37.1332 26.9505 38.0891Z" fill="#FEFEFE"/>
</g>
<defs>
<clipPath id="clip0_2_1132">
<rect width="157" height="52" fill="white"/>
</clipPath>
</defs>
</svg>
