<svg fill="none" height="608" viewBox="0 0 914 608" width="914" xmlns="http://www.w3.org/2000/svg"><path clip-rule="evenodd" d="m454.433 333.994c2.478 0 4.803-.395 6.972-1.184 2.169-.79 4.296-2.002 6.38-3.637v3.806h14.705v-47.877h-14.705v31.805c-3.437 2.707-6.789 4.06-10.056 4.06-2.761 0-4.719-.606-5.874-1.818-1.155-1.213-1.732-2.975-1.732-5.287v-28.76h-14.706v28.76c0 6.993 1.578 12.096 4.733 15.311 3.155 3.214 7.916 4.821 14.283 4.821zm53.392-1.015 7.438-12.942 7.774 12.942h17.156l-16.057-24.277 15.296-23.6h-16.986l-6.93 11.588-6.846-11.588h-17.155l14.789 22.923-15.635 24.954zm61.929 1.438c6.254 0 11.972-1.551 17.156-4.653l-4.142-12.18c-2.028 1.297-3.985 2.256-5.873 2.876-1.887.62-3.845.93-5.873.93-3.606 0-6.226-1.071-7.86-3.214s-2.451-5.245-2.451-9.305c0-3.947.845-6.936 2.536-8.966 1.69-2.03 4.422-3.074 8.197-3.13 2.254 0 4.296.197 6.127.592s3.789 1.1 5.874 2.115v-13.365c-2.197-.902-4.31-1.523-6.339-1.861-2.028-.338-4.479-.508-7.352-.508-7.888.057-13.916 2.27-18.085 6.641-4.17 4.37-6.254 10.559-6.254 18.567 0 8.064 2.084 14.31 6.254 18.736 4.169 4.427 10.197 6.669 18.085 6.725zm48.576 0c4 0 7.437-.324 10.31-.973 2.874-.648 5.775-1.79 8.705-3.425l-3.803-11.336c-2.592 1.298-4.888 2.214-6.888 2.75-2 .535-4.099.803-6.296.803-3.775 0-6.634-.761-8.578-2.284-1.943-1.522-3.225-3.637-3.845-6.344h30.255v-5.836c0-7.839-2-13.803-6.001-17.891-3.999-4.088-9.521-6.133-16.563-6.133-4.395 0-8.367.973-11.917 2.919-3.549 1.945-6.366 4.821-8.451 8.628-2.084 3.806-3.127 8.36-3.127 13.661 0 5.075 1.014 9.53 3.043 13.365 2.028 3.834 5 6.809 8.915 8.924 3.916 2.115 8.663 3.172 14.241 3.172zm-10.311-31.721c.507-2.481 1.395-4.229 2.663-5.244 1.267-1.015 2.915-1.523 4.944-1.523 2.197 0 3.873.536 5.028 1.607 1.155 1.072 1.845 2.792 2.07 5.16zm53.9 31.721v-73h-14.705v72.873z" fill="#05060f" fill-rule="evenodd"/><path d="m325.967 377c40.299 0 72.967-32.683 72.967-73s-32.668-73-72.967-73-72.967 32.683-72.967 73 32.668 73 72.967 73z" fill="#05060f"/><path clip-rule="evenodd" d="m289.483 282.295 30.403 13.879v42.045l-30.403-13.88v-13.417l18.242 8.328v-15.211l-18.242-8.328zm72.967 0v13.416l-18.241 8.328v15.211l18.241-8.328v13.417l-30.403 13.88v-42.045zm-36.494-17.076 26.136 11.985-12.886 5.838-13.229-6.065-13.188 6.102-12.846-5.816z" fill="#fff" fill-rule="evenodd"/></svg>